<svg xmlns="http://www.w3.org/2000/svg" xmlns:xlink="http://www.w3.org/1999/xlink" viewBox="0 0 414.23 381.25"><defs><style>.cls-1{fill:none;}.cls-2{fill:#e3f3f5;}.cls-3{clip-path:url(#clip-path);}.cls-4{fill:#c0e2e8;}.cls-12,.cls-5{fill:#fffaef;}.cls-6,.cls-9{fill:#8cc3cf;}.cls-7{fill:#383a45;}.cls-8{fill:#2291a5;}.cls-10,.cls-9{opacity:0.3;}.cls-11{fill:#f05757;}.cls-12,.cls-13{opacity:0.2;}.cls-14{fill:#ef9a9b;}.cls-15{fill:#bb545b;}.cls-16{fill:#e57373;}.cls-17{fill:#42394a;}</style><clipPath id="clip-path"><path class="cls-1" d="M320,88.42c-26.55,5.15-8.79-46.32-36.17-71.68C262.07-3.41,220-16.88,162,46.69c-25.1,27.54-21.21-23.32-59.78-19.34S-28.2,207.65,86.38,199.51c51.75-3.68,31,40.09,66.7,50,68.79,19.06,72.76-37.39,100.95-41.27,23.69-3.26,12.66,110.62,95-1.28C375.54,170.86,401.26,72.66,320,88.42Z"/></clipPath></defs><title>Asset 1</title><g id="Layer_2" data-name="Layer 2"><g id="OBJECTS"><path class="cls-2" d="M320,88.41c-26.55,5.15-8.79-46.32-36.17-71.68C262.07-3.42,220-16.88,162,46.68c-25.1,27.54-21.21-23.32-59.78-19.34S-28.2,207.64,86.38,199.5c51.75-3.68,31,40.09,66.7,50,68.79,19.06,72.76-37.39,100.95-41.27,23.69-3.26,12.66,110.62,95-1.28C375.54,170.86,401.26,72.65,320,88.41Z"/><g class="cls-3"><path class="cls-4" d="M31.69,140.55c-4.72,34.32,7.43,62.28,54.64,58.93,51.75-3.68,31,40.09,66.7,50,68.79,19.06,72.76-37.39,100.95-41.27,23.69-3.26,12.66,110.62,95-1.28,11.31-15.37,22.46-42,25.25-66.34Z"/><path class="cls-5" d="M369.87,116.73s-59,2.18-61.56,0,10.17-.36,13.44-2.18,6.54-10.32,11.63-8.8,2.7,7,6.8,1.89,8.89-22.94,17.94-18.55S363.84,98.2,369,99.65s5.63-3.63,9,0,2.41,10.11,4.71,10.32,1.66-4.51,8-2,2.66,4.36,7.58,4.36,18.13,2.91,15.7,3.27S373.83,116.59,369.87,116.73Z"/><path class="cls-5" d="M154.67,119.3s50.14-.32,50.73-.74-3.06,0-9.29-1.79-3.31-9.18-10.15-8.92-4.26,7.64-10.45,7.18-3.65-5.76-8.52-4.9-1.2,7-5.26,6.64S135.58,119.46,154.67,119.3Z"/><path class="cls-5" d="M260.89,66.62s50.14-.32,50.73-.74-3.06,0-9.29-1.79-3.31-9.18-10.15-8.92-4.26,7.64-10.45,7.18-3.65-5.76-8.52-4.9-1.2,7-5.26,6.64S241.8,66.77,260.89,66.62Z"/><path class="cls-5" d="M15.6,112.2s50.14-.32,50.73-.74-3.06,0-9.29-1.79-3.31-9.18-10.15-8.92-4.26,7.64-10.45,7.18-3.65-5.76-8.52-4.9-1.2,7-5.26,6.64S-3.49,112.36,15.6,112.2Z"/><circle class="cls-4" cx="217.21" cy="90.52" r="27.52"/><path class="cls-5" d="M275.16,49.31s-78.77,2.91-82.17,0,13.58-.49,17.95-2.91,8.73-13.78,15.52-11.74,3.61,9.32,9.08,2.53S247.4,6.56,259.48,12.41s7.63,12.16,14.46,14.1,7.52-4.85,12,0,3.22,13.5,6.29,13.78,2.21-6,10.64-2.63,3.56,5.82,10.12,5.82,24.2,3.88,21,4.37S280.45,49.12,275.16,49.31Z"/><path class="cls-5" d="M96.72,74.91s-45.23,1.67-47.18,0,7.8-.28,10.3-1.67,5-7.91,8.91-6.74,2.07,5.35,5.21,1.45,6.81-17.58,13.75-14.22,4.38,7,8.3,8.09,4.32-2.78,6.9,0,1.85,7.75,3.61,7.91,1.27-3.46,6.11-1.51,2,3.34,5.81,3.34,13.9,2.23,12,2.51S99.75,74.8,96.72,74.91Z"/><path class="cls-5" d="M227,144.32s8.21,0,6.37.56C231.15,145.55,225.16,144.62,227,144.32Z"/><path class="cls-5" d="M235.51,144.32s8.21,0,6.37.56C239.68,145.55,233.68,144.62,235.51,144.32Z"/><path class="cls-5" d="M242.5,143.13s8.21,0,6.37.56C246.66,144.35,240.66,143.43,242.5,143.13Z"/><path class="cls-5" d="M222.67,146.4s8.21,0,6.37.56C226.83,147.63,220.83,146.7,222.67,146.4Z"/><path class="cls-5" d="M215.07,145.61s8.21,0,6.37.56C219.23,146.83,213.24,145.91,215.07,145.61Z"/><path class="cls-5" d="M205.06,147.59s8.21,0,6.37.56C209.23,148.82,203.23,147.89,205.06,147.59Z"/><path class="cls-5" d="M198.67,144.73s8.21,0,6.37.53C202.83,145.94,196.83,145,198.67,144.73Z"/><path class="cls-5" d="M186.34,144.82s8.21,0,6.37.56C190.5,146,184.51,145.12,186.34,144.82Z"/><path class="cls-5" d="M179.83,144.42s5.58,0,4.33.56C182.66,145.65,178.58,144.72,179.83,144.42Z"/><path class="cls-5" d="M193.34,143.13s5.58,0,4.33.56C196.17,144.35,192.09,143.43,193.34,143.13Z"/><path class="cls-5" d="M225.09,142s5.58,0,4.33.56C227.92,143.2,223.84,142.28,225.09,142Z"/><path class="cls-5" d="M229.84,148.69s5.58,0,4.33.56C232.67,149.91,228.59,149,229.84,148.69Z"/><path class="cls-5" d="M218.45,142.73s5.58,0,4.33.56C221.28,144,217.2,143,218.45,142.73Z"/><path class="cls-5" d="M210.06,142s5.58,0,4.33.56C212.89,143.2,208.81,142.28,210.06,142Z"/><path class="cls-5" d="M247.21,146s5.58,0,4.33.56C250,147.23,246,146.3,247.21,146Z"/><path class="cls-5" d="M234.07,142.73s5.58,0,4.33.56C236.91,144,232.83,143,234.07,142.73Z"/><path class="cls-5" d="M199.66,142.5s5.57-.35,4.36.29C202.56,143.55,198.43,142.88,199.66,142.5Z"/><path class="cls-5" d="M183.85,142.73s5.58,0,4.33.56C186.69,144,182.61,143,183.85,142.73Z"/><path class="cls-5" d="M193.18,147.59s8.21,0,6.37.56C197.34,148.82,191.34,147.89,193.18,147.59Z"/><path class="cls-5" d="M215.68,149.08s8.21,0,6.37.56C219.85,150.31,213.85,149.38,215.68,149.08Z"/><path class="cls-5" d="M236.56,148s8.21,0,6.37.56C240.72,149.22,234.73,148.29,236.56,148Z"/><path class="cls-5" d="M207.63,144.15s8.19-.59,6.4.09C211.87,145.07,205.82,144.58,207.63,144.15Z"/><path class="cls-6" d="M365.25,223.86c-1.72-2.42-13-44.24-23.41-65.65l3.69-1.22s16.84,31.46,22.59,57.58Z"/><path class="cls-6" d="M370,211.55c-.39-7.87-.52-60.13-15.84-87.55l3.86.36s17.65,25,22.32,80.82Z"/><path class="cls-6" d="M343.39,157.1c.11-1-8.34.14-11.56,5s-.2,28.52-.2,28.52,4.61-11,4.1-12.22a11.16,11.16,0,0,1-.67-2.6s2.18.9,2.23-.13S343.11,159.63,343.39,157.1Z"/><path class="cls-6" d="M345.52,157c1.31-.14-16.38-5.73-21.67-2.53s-5.13,22.74-4.75,22.11,2.44-6.16,5.35-10.21,5.1-7.62,5.1-7.62Z"/><path class="cls-6" d="M343,158.84c-1.78-.22-5.68-15.69-1.4-16.66s18.7,2.19,17.28,2.46-13.36,2.74-13.67,4.06S345.13,159.11,343,158.84Z"/><path class="cls-6" d="M341.84,158.21s2.71-5.35,9.77-3,12.8,11.22,13.2,19.13l-8.19-8.16,1.58-1.78a13,13,0,0,1-2.81,1C353.87,165.61,347.13,157.63,341.84,158.21Z"/><path class="cls-6" d="M342.2,155.85s5.73-8,11.22-7.28,13.51,6.89,15.81,10.82c0,0-10.95-4.17-13.19-4.66C354.7,154.42,342.2,155.85,342.2,155.85Z"/><path class="cls-6" d="M356,123.6c.48-.84-7.7-3.21-12.59-.06s-11.58,26.06-11.58,26.06,8.63-8.26,8.64-9.56a11.16,11.16,0,0,1,.42-2.65s1.64,1.69,2.09.78S354.74,125.81,356,123.6Z"/><path class="cls-6" d="M358,124.36c1.26.4-12.72-11.8-18.85-11s-13.79,18.79-13.2,18.36,4.7-4.67,9-7.22,7.72-4.95,7.72-4.95Z"/><path class="cls-6" d="M354.93,125c-1.55-.91,1.06-16.66,5.38-15.83s16.26,9.48,14.86,9.17-13.34-2.83-14.15-1.74S356.8,126.14,354.93,125Z"/><path class="cls-6" d="M354.61,124.53s6.39-7.53,11.79-6.31,12.89,8,14.85,12.11c0,0-10.56-5.07-12.75-5.75C367.19,124.17,354.61,124.53,354.61,124.53Z"/><path class="cls-6" d="M355.31,124.13s9.72-1.75,13.11,2.63,4.86,14.37,3.76,18.79c0,0-4.92-10.63-6.18-12.55C365.25,131.84,355.31,124.13,355.31,124.13Z"/><path class="cls-6" d="M47.61,230.37c1.68-3.69,6-62.68,14.34-94.06l-5.26-.68s-14.41,46.53-15.34,83Z"/><path class="cls-6" d="M59.59,135.21c-.39-1.27,11.22-2,16.79,3.68s7.67,38.18,7.67,38.18-9-13.58-8.67-15.31a15.24,15.24,0,0,0,.23-3.66s-2.69,1.77-3,.41S60.63,138.53,59.59,135.21Z"/><path class="cls-6" d="M56.7,135.63c-1.8.16,20.47-11.93,28.38-9S97.86,155.75,97.19,155s-4.87-7.62-9.82-12.3-8.81-8.89-8.81-8.89Z"/><path class="cls-6" d="M60.61,137.45c2.33-.76,3.54-22.51-2.45-22.69s-24.49,7.78-22.53,7.78,18.61.21,19.38,1.9S57.79,138.36,60.61,137.45Z"/><path class="cls-6" d="M62,136.3s-5-6.47-13.89-1.53-14.25,18.36-12.72,29.06l8.85-13.06-2.58-2a17.74,17.74,0,0,0,4,.62C47.76,149.35,54.71,136.89,62,136.3Z"/><path class="cls-6" d="M60.86,133.23s-9.77-9.28-16.93-6.84S27.61,139.13,25.54,145c0,0,13.59-8.42,16.46-9.67C43.74,134.57,60.86,133.23,60.86,133.23Z"/></g><path class="cls-4" d="M276.66,375c14.63-4.53,132-2.25,132.2,3.09S254.55,381.8,276.66,375Z"/><path class="cls-4" d="M17,375c33.4-4.53,301.4-2.25,301.86,3.09S-33.52,381.8,17,375Z"/><path class="cls-7" d="M386.32,284.45a1.5,1.5,0,0,1-1.5-1.5v-36c0-3.28-4.49-6-9.8-6s-9.8,2.77-9.8,6v36a1.5,1.5,0,0,1-3,0v-36c0-5,5.74-9,12.8-9s12.8,4.06,12.8,9v36A1.5,1.5,0,0,1,386.32,284.45Z"/><rect class="cls-7" x="366.37" y="237.5" width="17.3" height="6.54" rx="3.27" ry="3.27"/><circle class="cls-7" cx="354.92" cy="369.24" r="6.69"/><circle class="cls-7" cx="395.12" cy="369.24" r="6.69"/><rect class="cls-8" x="344.32" y="281.5" width="61.4" height="82.42" rx="12" ry="12"/><rect class="cls-9" x="373" y="291.53" width="4.05" height="62.35" rx="2.02" ry="2.02"/><g class="cls-10"><rect class="cls-6" x="361.1" y="291.53" width="4.05" height="62.35" rx="2.02" ry="2.02"/><rect class="cls-6" x="384.89" y="291.53" width="4.05" height="62.35" rx="2.02" ry="2.02"/></g><path class="cls-7" d="M42,284.45a1.5,1.5,0,0,1-1.5-1.5v-36c0-3.28-4.49-6-9.8-6s-9.8,2.77-9.8,6v36a1.5,1.5,0,0,1-3,0v-36c0-5,5.74-9,12.8-9s12.8,4.06,12.8,9v36A1.5,1.5,0,0,1,42,284.45Z"/><rect class="cls-7" x="22.05" y="237.5" width="17.3" height="6.54" rx="3.27" ry="3.27"/><circle class="cls-7" cx="10.6" cy="369.24" r="6.69"/><circle class="cls-7" cx="50.8" cy="369.24" r="6.69"/><rect class="cls-11" y="281.5" width="61.4" height="82.42" rx="12" ry="12"/><rect class="cls-12" x="28.68" y="291.53" width="4.05" height="62.35" rx="2.02" ry="2.02"/><g class="cls-13"><rect class="cls-5" x="16.78" y="291.53" width="4.05" height="62.35" rx="2.02" ry="2.02"/><rect class="cls-5" x="40.57" y="291.53" width="4.05" height="62.35" rx="2.02" ry="2.02"/></g><path class="cls-14" d="M222.15,300.32a174.84,174.84,0,0,1,7.8,30c1.31,8.77-3.95,36.49-3.95,36.49l-7.24-1.14s-.52-27.73-1.15-31.18C214.32,316.75,200,297.77,200,297.77s-.41,21.84-4.1,34.84c-1.12,3.94-12.47,29-12.47,29l-7.24-1.8s7.83-26.28,8-31.34.71-30,.71-30l33.77-4.67Z"/><path class="cls-14" d="M253.21,265.72s1.23-6.34,4.84-9.59S269.58,252.52,271,254s-8,4.54-9.78,7.46-2.35,4.38-3.94,5.59S253.21,265.72,253.21,265.72Z"/><path class="cls-7" d="M261.71,259.63a.25.25,0,0,1-.21-.11l-2.43-3.74a.25.25,0,0,1,.42-.27l2.43,3.74a.25.25,0,0,1-.07.35A.25.25,0,0,1,261.71,259.63Z"/><path class="cls-7" d="M261,258.58a.25.25,0,0,1-.11-.47c2.37-1.15,8.4-3.82,8.46-3.85a.25.25,0,1,1,.2.46c-.06,0-6.08,2.69-8.44,3.84Z"/><path class="cls-7" d="M260.42,257.37a.25.25,0,0,1-.15-.45c2.45-1.8,7.74-3.27,8-3.33a.25.25,0,0,1,.31.17.25.25,0,0,1-.17.31c-.05,0-5.43,1.51-7.8,3.25A.25.25,0,0,1,260.42,257.37Z"/><path class="cls-7" d="M259.56,256.24a.25.25,0,0,1-.13-.46c.21-.13,5.22-3.08,8.38-2.86a.25.25,0,0,1,0,.5h0c-3-.19-8,2.77-8.09,2.8A.25.25,0,0,1,259.56,256.24Z"/><path class="cls-14" d="M256,258.59s-8.87,9.64-15.64,9.87-4-35.48-24.86-39.64l-1.2,13.58s5.42,1.94,9.5,15.11c5.52,17.78,10.73,24.15,20.31,20.51C256.14,273.45,266.35,253.8,256,258.59Z"/><path class="cls-7" d="M218.77,366.57c.1.23-.65,9.36.83,10s16.14.36,16.4-.18-7.22-2.59-8.71-4.38c-1.09-1.3-1.29-5.15-1.29-5.15S218.52,366,218.77,366.57Z"/><path class="cls-7" d="M176.16,359.85c.51.08-3.9,8.57-2.74,9.68s14.88,6.25,15.32,5.84-5.77-5.05-6.5-7.27c-.54-1.61,1.16-6.47,1.16-6.47S175.55,359.76,176.16,359.85Z"/><path class="cls-7" d="M209.28,319.22c-.9-4.5-6.3-15.12-6.3-15.12a62.66,62.66,0,0,1-.2,15.74l-21.57-.64c-1.43-12-1.19-28.12-1.19-28.12l41.29-6.79s7,23,8.24,30.68Z"/><path class="cls-7" d="M212.7,221.84c-.24,0-41.09-.9-43.51,3.47s-3.12,56.41,0,57.75,47,0,47,0S217.08,221.86,212.7,221.84Z"/><path class="cls-11" d="M223.83,256.16c.38.21,9.81-3.46,10.81-6.21s-6.81-21-17.18-22.14c0,0-3.14,8.19-3.14,11.39S221.51,254.87,223.83,256.16Z"/><path class="cls-11" d="M180,291.91c4,1.15,43.8-.74,43.8-.74s-3.25-59.66-4.13-62.36-38.11-2.79-39.88-.19Z"/><path class="cls-7" d="M184.79,226.38s10.73,49.75-7.6,51.63v5.6s16.53-1.16,16.53-19.07c0-15.2-1.32-37.9-1.32-37.9Z"/><path class="cls-14" d="M179.87,228.82s-41.58,31.69-25,45.54S182.36,258,190.51,260c8.52,2,12-.41,7.39-3.43-4.81-3.14-7.42-4.71-13-1S163.79,273.8,161.42,267c-2.31-6.65,19.39-23.83,19.39-23.83Z"/><path class="cls-7" d="M189.74,258.72l-.11,0a.25.25,0,0,1-.11-.34l2.36-4.62a.25.25,0,0,1,.45.23L190,258.58A.25.25,0,0,1,189.74,258.72Z"/><path class="cls-7" d="M199.35,258.72l-.1,0-7.65-3.43a.25.25,0,0,1,.21-.46l7.65,3.43a.25.25,0,0,1-.1.48Z"/><path class="cls-7" d="M198.81,259.74l-.1,0-7.89-3.33a.25.25,0,0,1,.19-.46l7.89,3.33a.25.25,0,0,1-.1.48Z"/><path class="cls-7" d="M197.31,260.38h-.08L190,258a.25.25,0,0,1,.16-.47l7.18,2.42a.25.25,0,0,1-.08.49Z"/><path class="cls-11" d="M160.28,244.21s1,2,12.51,12.18c0,0,11.27-8.91,12-9.37s-1.09-19.47-1.67-19.44C177.19,227.87,169.12,233.12,160.28,244.21Z"/><path class="cls-7" d="M214.32,184.55s-6.34-10-16.2-6.16c-8.1,3.12-7,9.67-11.11,10.56-5.12,1.13-5.06,8.26-2.09,12.21,3.69,4.92-.2,4.27,1.57,8.34s7.73,5.93,8.88,5.12S219.5,190.27,214.32,184.55Z"/><path class="cls-14" d="M196.77,208.31s-2.36-7.09-5.42-7.53-2.51,7.42,1.65,9.93S196.77,208.31,196.77,208.31Z"/><path class="cls-14" d="M191.31,188.55s-4.24,29.93,15,29.92c16.73,0,12.2-31.37,2.2-33.78S191.61,185.42,191.31,188.55Z"/><path class="cls-14" d="M207.09,203.91s-.81,21.08,0,22.74c1.13,2.31-2.78,4.77-6.45,4.64-5.37-.19-5.37-4.66-5.37-4.66V199.05S204.14,199.85,207.09,203.91Z"/><path class="cls-7" d="M193.32,184.75c1.53-.93,16.89-6.27,21.71.64,2.53,3.63-1.57,11.35-13.76,6.27-9.64-4-4.55,15.26-6,14.47s-2.87-5.08-4.06-3.2-.4,6.65,4.06,8.78c0,0-.1,3-.52,2.35S177.36,194.45,193.32,184.75Z"/><path class="cls-7" d="M209.77,208.56a.61.61,0,0,1-.3-.08c-.71-.39-1-2.3-1.05-2.68a.25.25,0,1,1,.5-.07c.12.84.44,2.11.8,2.31a.11.11,0,0,0,.11,0c.39-.38,0-4.52-.66-8.13a.25.25,0,1,1,.49-.08c.53,3.06,1.28,8.26.37,8.67A.62.62,0,0,1,209.77,208.56Z"/><circle class="cls-7" cx="202.46" cy="202.17" r="0.86"/><circle class="cls-7" cx="213.46" cy="201.63" r="0.86"/><path class="cls-7" d="M208.71,211.35a2.11,2.11,0,0,1-2-1.41.25.25,0,0,1,.48-.15,1.64,1.64,0,0,0,1.74,1.06c1.28-.1,1.31-.83,1.31-.91a.25.25,0,0,1,.24-.25c.14,0,.25.1.26.24s0,1.29-1.77,1.43Z"/><path class="cls-7" d="M201.27,199.11a2.38,2.38,0,0,0-1.65,1.29c-.34.72,1.34-.38,2.6-.3s2.29.52,1.95,0S203,199.05,201.27,199.11Z"/><path class="cls-7" d="M212.06,197.68a2.38,2.38,0,0,0-1.65,1.29c-.34.72,1.34-.38,2.6-.3s2.29.52,1.95,0S213.84,197.62,212.06,197.68Z"/><path class="cls-15" d="M206.73,220.39a3.19,3.19,0,0,0,0-1.92c-.22-.08-7.06-.54-9-3.29S197.11,220.95,206.73,220.39Z"/><path class="cls-7" d="M194.35,209.75a.25.25,0,0,1-.11-.47c.12-.06.13-.3.13-.4a5.12,5.12,0,0,0-1.68-3.3c-.5-.25-.69-.21-.72-.19a.26.26,0,0,1-.29.21.26.26,0,0,1-.23-.28.52.52,0,0,1,.27-.37c.27-.14.66-.09,1.19.18.93.46,2,2.63,2,3.74a.84.84,0,0,1-.41.84Z"/><path class="cls-7" d="M193.83,208.56a.25.25,0,0,1-.16-.06,2.86,2.86,0,0,1-.76-2.42.24.24,0,0,1,.27-.23.25.25,0,0,1,.23.27,2.39,2.39,0,0,0,.59,2,.25.25,0,0,1-.16.44Z"/><circle class="cls-16" cx="201.01" cy="206.62" r="2.88"/><circle class="cls-16" cx="214.32" cy="206.09" r="2.88"/><path class="cls-4" d="M179.37,348.71,188,351.3s-5.1,11.77-5.31,12.62L175.48,362S177.69,352.43,179.37,348.71Z"/><path class="cls-4" d="M218.39,353.91h9.78s-1.24,7.69-2.09,13.85l-7.32.19S218.39,362,218.39,353.91Z"/><path class="cls-11" d="M339.54,140.29c-13.58-2.69-5.24-3-8.16-11.84-2.63-8-13.45-2.49-11.15-12.72,3.47-15.44-21.08-30.08-32.79-16.74-14.16,16.12,22.22,13.52,21,20.38-2.4,13-11.14,26.09-4.95,28.9s9.5.17,8.93,5.25-5.38,15.88,4.81,15.57,6.88,7.3,16.07,7.89c6.35.41,2.84-7.31,12.5-6.52,7.07.58,9.72-13.14,1.06-13.92S347.3,141.82,339.54,140.29Z"/><path class="cls-14" d="M328.3,173.5s5.46,19.4,9.21,27.6c9.28,20.27,33.49,31.1,33.49,31.1l-2.62,5.72s-21.15-9.17-35.22-26.77c-6.59-8.25-20.51-33.73-20.51-33.73S325.88,167.26,328.3,173.5Z"/><path class="cls-16" d="M267.44,244.37s3,5.72,2.2,10.51-6.74,10-8.74,9.77,3.39-8.53,3-11.94-2.07-6.15-1.59-8.09S267.44,244.37,267.44,244.37Z"/><path class="cls-7" d="M269,256.3h-.08l-4.23-1.41a.25.25,0,0,1,.16-.47l4.23,1.41a.25.25,0,0,1-.08.49Z"/><path class="cls-7" d="M261.75,263.56a.25.25,0,0,1-.12,0,.25.25,0,0,1-.11-.34c0-.06,3.07-5.9,4.2-8.27a.25.25,0,0,1,.45.21c-1.13,2.38-4.17,8.23-4.2,8.28A.25.25,0,0,1,261.75,263.56Z"/><path class="cls-7" d="M263.08,263.34a.25.25,0,0,1-.2-.4s3.3-4.57,4.06-7.42a.25.25,0,0,1,.48.13c-.79,2.93-4,7.39-4.14,7.58A.25.25,0,0,1,263.08,263.34Z"/><path class="cls-7" d="M263.89,263.54a.25.25,0,0,1-.14-.46c2.49-1.73,4.56-7.18,4.58-7.24a.25.25,0,0,1,.47.18c-.09.23-2.14,5.65-4.76,7.47A.25.25,0,0,1,263.89,263.54Z"/><path class="cls-16" d="M332.85,347.73l-.92,14.82h-9.38s.07-11.26-.85-16.4S332.85,347.73,332.85,347.73Z"/><path class="cls-7" d="M322.54,360.61c.64-.14-.62,12,1.28,12.83s20.67.46,21-.23-9.24-3.31-11.16-5.61c-1.39-1.67-1.65-6.6-1.65-6.6S321.77,360.78,322.54,360.61Z"/><path class="cls-16" d="M302.71,347.73l-.92,14.82h-9.38s.07-11.26-.85-16.4S302.71,347.73,302.71,347.73Z"/><path class="cls-8" d="M367.61,229.38s1.74.5-3.32,8.94c-2.25,3.75-33.85-18-39.09-39.15-2.08-8.44.46-37.72.46-37.72s14.41,37.39,18,44.52C349.49,217.7,367.61,229.38,367.61,229.38Z"/><path class="cls-8" d="M272.38,322.7h53.56s6.4-84.62-5.85-94.4-37.75-4.66-37.75-4.66Z"/><path class="cls-8" d="M313.27,148.37s-2,21.06,1.3,30.53,0,135.33,1,139.14,16.46,3.66,17.51,4.66-4.57-127.82-4.49-132.88-2.29-26.53-3.28-29.68C321.94,149.26,313.27,148.37,313.27,148.37Z"/><path class="cls-7" d="M282.34,223.64c.8-3.1-8.53,22.06-5.7,41.82s12.93,69.05,15.47,85.84h10.38s2-31.35,2.85-48.34c1.33-27.95-1.05-49.25-.6-56.6H309s9.25,32.74,12.4,45.17c4.52,17.86-.67,59.77-.67,59.77h12.5s11.85-53.67,7-73.43c-5.88-24.12-17.23-53.12-17.23-53.12Z"/><path class="cls-5" d="M290.07,148.37c3.46-2,17.61-2.54,23.19,0S323.54,226,323.54,226s-45.39,1.57-45.39-1.25-1.63-66.19,1.78-70.89S290.07,148.37,290.07,148.37Z"/><path class="cls-5" d="M313.09,189.83s14.48-4.57,10-15.07c-5.57-12.93-5.13-26.69-12.5-26.49S300,176.77,313.09,189.83Z"/><path class="cls-11" d="M298,146.66s-15.07-1.9-20.22-15.83c-4.91-13.29,2.7-26.91,9.54-28.32S310.72,142.21,298,146.66Z"/><path class="cls-14" d="M311,104.19s4.69,33.1-16.6,33.1c-18.5,0-13.49-34.7-2.44-37.36S310.65,100.73,311,104.19Z"/><path class="cls-14" d="M293.53,121.18s.9,23.32,0,25.16c-1.24,2.55,2.5,18.2,11.4,14.12,5.41-2.48,1.68-14.14,1.68-14.14V115.8S296.79,116.69,293.53,121.18Z"/><path class="cls-7" d="M290.57,126.3a.67.67,0,0,1-.28-.06c-1-.46,0-6.84.43-9.56a.25.25,0,0,1,.29-.2.25.25,0,0,1,.2.29c-.7,4-1.16,8.64-.7,9a.14.14,0,0,0,.14,0c.41-.22.77-1.64.9-2.57a.25.25,0,0,1,.5.07c-.06.42-.38,2.52-1.15,2.94A.64.64,0,0,1,290.57,126.3Z"/><circle class="cls-7" cx="298.65" cy="119.26" r="0.96"/><circle class="cls-7" cx="286.48" cy="118.65" r="0.96"/><path class="cls-7" d="M291.74,129.38h-.23c-2-.15-1.93-1.54-1.93-1.55a.25.25,0,0,1,.25-.24h0a.25.25,0,0,1,.24.26h0s0,.93,1.47,1a1.8,1.8,0,0,0,2-1.19.25.25,0,0,1,.48.15A2.34,2.34,0,0,1,291.74,129.38Z"/><path class="cls-11" d="M300,115.87a2.63,2.63,0,0,1,1.82,1.43c.37.8-1.48-.42-2.87-.33s-2.54.57-2.16,0S298,115.8,300,115.87Z"/><path class="cls-11" d="M288,114.29a2.63,2.63,0,0,1,1.82,1.43c.37.8-1.48-.42-2.87-.33s-2.54.57-2.16,0S286.06,114.22,288,114.29Z"/><path class="cls-15" d="M293.93,139.4a3.53,3.53,0,0,1,0-2.12c.24-.08,7.81-.59,10-3.64S304.57,140,293.93,139.4Z"/><circle class="cls-16" cx="300.26" cy="124.18" r="3.19"/><circle class="cls-16" cx="285.53" cy="123.59" r="3.19"/><path class="cls-7" d="M292.4,360.61c.64-.14-.62,12,1.28,12.83s20.67.46,21-.23-9.24-3.31-11.16-5.61c-1.39-1.67-1.65-6.6-1.65-6.6S291.62,360.78,292.4,360.61Z"/><path class="cls-11" d="M292.41,96.95s-10.07,2.34-5.1,8.78,18.08,4,17.44,8.55,1,10.31,6.41,12.5,7.09-1.58,8.24-4.83C322.6,112.86,315.12,88.06,292.41,96.95Z"/><path class="cls-4" d="M319.63,186.33s-8.3,2.19-12.31,2.19,5.57,3,9.95,1.3S319.63,186.33,319.63,186.33Z"/><path class="cls-4" d="M300.47,188s-8.58,0-12.46-1,4.63,4.33,9.3,3.77S300.47,188,300.47,188Z"/><path class="cls-8" d="M291.78,147.71s2.47,21.72-.85,31.2S282.46,294.17,287,321.2c.66,3.88-13.58.51-14.64,1.51s4.57-127.82,4.49-132.88-.23-36,2-38.35S291.78,147.71,291.78,147.71Z"/><path class="cls-14" d="M304.94,126s2.61-7.85,6-8.33,2.78,8.2-1.82,11S304.94,126,304.94,126Z"/><path class="cls-7" d="M307.62,127.62l-.11,0a.91.91,0,0,1-.43-.91c0-1.23,1.13-3.61,2.15-4.12.58-.29,1-.35,1.29-.2a.55.55,0,0,1,.29.39.25.25,0,0,1-.49.08c-.09-.06-.3-.1-.86.18a5.7,5.7,0,0,0-1.87,3.67c0,.14,0,.39.16.46a.25.25,0,0,1-.11.47Z"/><path class="cls-7" d="M308.19,126.3a.25.25,0,0,1-.16-.44,2.68,2.68,0,0,0,.66-2.25.25.25,0,1,1,.5,0,3.14,3.14,0,0,1-.83,2.66A.25.25,0,0,1,308.19,126.3Z"/><path class="cls-8" d="M280.31,180.85s-9.91,8-13.35,27.58c-2.3,13,1.77,35.82,2.49,37.8,1.1,3-9.14,6.78-10.47,4.63s-10.2-29.9-7.39-47.76c4.82-30.65,24.3-53.48,32.5-53.46C290.85,149.65,285.48,172.74,280.31,180.85Z"/><path class="cls-14" d="M371,231.92s10-1.06,10.6,9c.58,9.47-4.91-3.24-13.22-3.31C365.55,237.62,364.26,233.8,371,231.92Z"/><path class="cls-7" d="M344.08,168.61a.25.25,0,0,1-.17-.43s1.9-1.92,1.14-5.74c-.41-2-1.66-2.1-3.39-2.19a7.53,7.53,0,0,1-4.76-1.49c-2-1.69-.91-4.09.29-6.64,1-2,1.94-4.12,1.6-6.15-.39-2.31-1.75-2.37-3.8-2.47a10.14,10.14,0,0,1-6.61-2.16c-2.31-1.9-2.34-4.43-2.36-6.67,0-2.67-.05-4.78-3.67-5.3-7.15-1-7.18-5.84-7.18-5.88a.25.25,0,0,1,.25-.25h0a.25.25,0,0,1,.25.25c0,.18,0,4.42,6.75,5.38,4,.58,4.07,3.11,4.1,5.79,0,2.23.05,4.54,2.18,6.29a9.72,9.72,0,0,0,6.32,2c2,.1,3.81.18,4.27,2.88.37,2.19-.7,4.45-1.64,6.45-1.17,2.47-2.17,4.6-.42,6a7,7,0,0,0,4.47,1.37c1.74.09,3.38.18,3.86,2.59.82,4.11-1.19,6.12-1.28,6.2A.25.25,0,0,1,344.08,168.61Z"/><path class="cls-7" d="M291.78,141.4l-.09,0c-7.05-2.67-10.81-8.44-11.18-17.16a45.11,45.11,0,0,1,2.13-14.76c.06-.19.09-.31.1-.36a.25.25,0,1,1,.49.11c0,.05-.05.19-.11.39A44.6,44.6,0,0,0,281,124.2c.35,8.5,4,14.12,10.86,16.71a.25.25,0,0,1-.09.48Z"/><path class="cls-7" d="M334.88,172.69a.25.25,0,0,1-.19-.09.25.25,0,0,1,0-.35c1.41-1.19,2-2.49,1.56-3.56s-1.92-1.82-3.76-1.75a3,3,0,0,1-2.28-.81c-1.46-1.48-1.3-4.71-1.14-7.83.13-2.66.27-5.42-.78-6.29a1.77,1.77,0,0,0-1.62-.21c-1.86.45-5.19-.28-7.53-2.28a6.51,6.51,0,0,1-2.43-5.59,3,3,0,0,0-.49-2.24c-.7-.81-2.09-.89-3.7-1-.65,0-1.33-.08-2-.18a2.74,2.74,0,0,1-1.94-1.14c-1.25-1.75-.66-4.8-.64-4.93a.24.24,0,0,1,.29-.2.25.25,0,0,1,.2.29s-.57,3,.55,4.54a2.26,2.26,0,0,0,1.6.94c.67.09,1.34.13,2,.17,1.73.11,3.22.2,4.05,1.17a3.41,3.41,0,0,1,.61,2.61,6,6,0,0,0,2.26,5.17c2.19,1.87,5.38,2.59,7.09,2.17a2.26,2.26,0,0,1,2.06.31c1.24,1,1.11,3.78,1,6.7s-.31,6.12,1,7.45a2.4,2.4,0,0,0,1.91.66c2.07-.07,3.72.72,4.24,2.07s-.12,2.78-1.7,4.12A.25.25,0,0,1,334.88,172.69Z"/><path class="cls-7" d="M326.06,146.93c-4.74,0-5-4-5.25-6.87a11.58,11.58,0,0,0-.28-2.17c-.41-1.35-1.33-1.43-2.86-1.56a13.39,13.39,0,0,1-3.72-.73,3.13,3.13,0,0,1-1.85-1.71c-1-2.21.27-5.41.33-5.55a.25.25,0,0,1,.33-.14.25.25,0,0,1,.14.32s-1.23,3.15-.33,5.16a2.64,2.64,0,0,0,1.56,1.44,13,13,0,0,0,3.59.7c1.56.13,2.79.24,3.29,1.92a11.56,11.56,0,0,1,.3,2.27c.22,3,.52,6.68,5.32,6.39a.25.25,0,0,1,.26.23.25.25,0,0,1-.23.27Z"/><path class="cls-7" d="M308.94,118.39l-.11,0c-1.4-.7-1.55-2-1.74-3.76a19.45,19.45,0,0,0-.57-3.29c-.84-3-6.35-3.86-12.18-4.73l-1.72-.26c-2.19-.34-3.63-1.15-4.27-2.42a4.56,4.56,0,0,1,.14-3.81.25.25,0,1,1,.44.23,4.14,4.14,0,0,0-.14,3.36c.57,1.11,1.88,1.84,3.9,2.15l1.72.26c6,.9,11.65,1.74,12.58,5.09a20.05,20.05,0,0,1,.58,3.37c.18,1.68.3,2.79,1.46,3.36a.25.25,0,0,1-.11.47Z"/><path class="cls-7" d="M329.64,131.07a.25.25,0,0,1-.25-.23c-.21-2.49-1.78-2.88-4.37-3.52a21.54,21.54,0,0,1-5.83-2.16c-3-1.74-2.85-2.59-2.11-4.53a14.2,14.2,0,0,0,.88-7.78c-1.15-8.86-5.37-11-5.41-11.06a.25.25,0,0,1,.22-.45c.18.09,4.51,2.29,5.69,11.44a14.66,14.66,0,0,1-.91,8c-.67,1.74-.89,2.33,1.89,3.92a21.11,21.11,0,0,0,5.71,2.1c2.62.65,4.51,1.12,4.75,4a.25.25,0,0,1-.23.27Z"/><path class="cls-7" d="M313.87,116.23h0c-1.71-.16-1.87-1.51-2.1-3.55a19.79,19.79,0,0,0-2.41-8.14c-3.68-6.58-16.81-7.34-16.95-7.35a.25.25,0,1,1,0-.5c.55,0,13.54.78,17.36,7.6a20.23,20.23,0,0,1,2.48,8.33c.24,2.12.39,3,1.65,3.11a.25.25,0,0,1,0,.5Z"/><path class="cls-7" d="M370.73,236.77a.25.25,0,0,1-.17-.43,46.16,46.16,0,0,0,3.57-3.76.25.25,0,0,1,.42.27,44.82,44.82,0,0,1-3.64,3.85A.25.25,0,0,1,370.73,236.77Z"/><path class="cls-7" d="M380.37,243.68a.25.25,0,0,1-.21-.11c0-.07-4.62-6.77-8.38-7.91a.25.25,0,0,1-.17-.31.24.24,0,0,1,.31-.17c3.93,1.19,8.46,7.82,8.65,8.1a.25.25,0,0,1-.07.35A.24.24,0,0,1,380.37,243.68Z"/><path class="cls-7" d="M380.37,242.49a.25.25,0,0,1-.25-.24,10.7,10.7,0,0,0-7.07-7.91.25.25,0,0,1,.18-.47,11.17,11.17,0,0,1,7.39,8.36A.25.25,0,0,1,380.37,242.49Z"/><path class="cls-7" d="M381,241.47a.25.25,0,0,1-.25-.2c0-.06-1.4-6.46-6.83-7.84a.25.25,0,1,1,.12-.48c5.74,1.46,7.19,8.16,7.2,8.22a.25.25,0,0,1-.19.3Z"/><path class="cls-14" d="M35.2,234.52s5.65-4.36,8.61-9c0,0,3.48,3.2,3.61,5.4s-6.57,9.48-8.64,9.48C37.83,240.4,35.2,234.52,35.2,234.52Z"/><path class="cls-14" d="M35.2,234.52s-10-1.06-10.6,9c-.58,9.47,5.88-3.08,14.19-3.15C41.62,240.38,41.95,236.39,35.2,234.52Z"/><path class="cls-7" d="M35.48,239.1a.25.25,0,0,1-.17-.07,44.66,44.66,0,0,1-3.64-3.85.25.25,0,0,1,.42-.27,46.17,46.17,0,0,0,3.57,3.76.25.25,0,0,1-.17.43Z"/><path class="cls-7" d="M25.84,246a.25.25,0,0,1-.21-.39c.19-.28,4.71-6.92,8.65-8.1a.25.25,0,1,1,.14.48c-3.77,1.14-8.33,7.84-8.38,7.91A.25.25,0,0,1,25.84,246Z"/><path class="cls-7" d="M25.84,244.81h0a.25.25,0,0,1-.24-.25A11.17,11.17,0,0,1,33,236.2a.25.25,0,1,1,.18.47,10.7,10.7,0,0,0-7.07,7.91A.25.25,0,0,1,25.84,244.81Z"/><path class="cls-7" d="M25.22,243.8h-.05a.25.25,0,0,1-.19-.3c0-.07,1.46-6.77,7.2-8.22a.25.25,0,0,1,.3.18.25.25,0,0,1-.18.3c-5.44,1.38-6.82,7.78-6.84,7.84A.25.25,0,0,1,25.22,243.8Z"/><path class="cls-7" d="M116.08,87.3s6.51,5,8.22,12.66-3.11,11.36-3.89,11.55S110.71,88.58,116.08,87.3Z"/><rect class="cls-5" x="148.22" y="138.21" width="10.82" height="20.86" rx="1.13" ry="1.13"/><circle class="cls-17" cx="150.33" cy="140.23" r="0.97"/><path class="cls-7" d="M122.4,360.61c.64-.14-.62,12,1.28,12.83s20.67.46,21-.23-9.24-3.31-11.16-5.61c-1.39-1.67-1.65-6.6-1.65-6.6S121.62,360.78,122.4,360.61Z"/><path class="cls-7" d="M75.39,348.29c.58.32-8.46,11.88-7.53,13.72s15.34,10.73,16,10.43-4.79-8.57-4.73-11.56c0-2.17,3.1-6.06,3.1-6.06S74.69,347.91,75.39,348.29Z"/><path class="cls-8" d="M134.95,236.72s13.22,48.07,12.31,58.58-8.37,68.61-8.37,68.61H118.72s7.47-67.13,7.11-72.39-9.54-34.41-11.26-34.28l-1.71.13s-1.92,40-3.71,49.43S84,360.36,84,360.36s-16-6-16.11-9.06S87.14,310.41,88.7,303,84,241.14,84,241.14Z"/><path class="cls-14" d="M163.47,156.85s-3.8-12-14.79-10.19c-7.63,1.29,8,7.81,9.83,12.39,1.11,2.85,10.54,35.94-3.05,33.43s-22.66-42.58-26.18-45.82-15.16,7.07-15.16,7.07,13.7,37.2,34.56,44S186.16,184.16,163.47,156.85Z"/><path class="cls-17" d="M157.05,159.95s7.5-5.06,10-2.8,19.56,33.19-3.47,43.58c-21.11,9.52-38.29-22-38.33-26.21s3.37-32.46,5.63-30.12c2.61,2.7,14.22,44.77,25.63,41.92S155,162.14,157.05,159.95Z"/><path class="cls-7" d="M117.71,89.61c-.69-.95-4.49-7.8-11.21-7.14s-5.62,6.63-10.71,7.81S85.06,99.6,89,105.58c2.83,4.25-3.42,3.79-1.53,10.67.9,3.3,8,7.38,10.44,7.44S123.85,98,117.71,89.61Z"/><path class="cls-17" d="M79.41,241.54s-.38-91.17,5.73-99,43.53-7.82,46.54,3.5c7,26.44,7.8,89.57,6.91,95.45C138.59,241.54,102.85,243.45,79.41,241.54Z"/><path class="cls-14" d="M100.2,117.34s-2.61-7.85-6-8.33-2.78,8.2,1.82,11S100.2,117.34,100.2,117.34Z"/><path class="cls-14" d="M96.13,97.52s-6.66,31.07,14.63,31.07c18.5,0,13.49-34.7,2.44-37.36S96.46,94.06,96.13,97.52Z"/><path class="cls-14" d="M111.61,112.48s-.9,23.32,0,25.16c1.24,2.55-3.07,5.28-7.14,5.14-5.94-.21-5.94-5.15-5.94-5.15V107.1S108.35,108,111.61,112.48Z"/><path class="cls-7" d="M101.7,87.71c1.69-1,11.37-4.33,16.7,3.31,2.8,4-1.78,16-11.9,7.88-9-7.22-6.36,16.9-8,16s-3.17-5.61-4.49-3.54-.45,7.35,4.49,9.71c0,0,.19,3-.57,2.6C92.05,120.67,84,98.44,101.7,87.71Z"/><path class="cls-7" d="M114.58,117.59a.65.65,0,0,1-.32-.08c-.77-.42-1.09-2.53-1.15-2.94a.25.25,0,0,1,.21-.28.26.26,0,0,1,.28.21c.13.93.49,2.35.9,2.57a.15.15,0,0,0,.15,0c.45-.38,0-5-.71-9a.25.25,0,1,1,.49-.08c.47,2.72,1.45,9.1.43,9.56A.67.67,0,0,1,114.58,117.59Z"/><circle class="cls-7" cx="106.5" cy="110.55" r="0.96"/><circle class="cls-7" cx="118.66" cy="109.94" r="0.96"/><path class="cls-7" d="M113.4,120.67a2.34,2.34,0,0,1-2.23-1.54.25.25,0,0,1,.48-.15,1.83,1.83,0,0,0,2,1.19c1.47-.11,1.47-1,1.47-1a.25.25,0,0,1,.24-.26.26.26,0,0,1,.26.24s0,1.41-1.93,1.55Z"/><path class="cls-7" d="M105.18,107.17a2.63,2.63,0,0,0-1.82,1.43c-.37.8,1.48-.42,2.87-.33s2.54.57,2.16,0S107.14,107.1,105.18,107.17Z"/><path class="cls-7" d="M117.12,105.58A2.63,2.63,0,0,0,115.3,107c-.37.8,1.48-.42,2.87-.33s2.54.57,2.16,0S119.08,105.51,117.12,105.58Z"/><path class="cls-7" d="M111.21,130.7a3.53,3.53,0,0,0,0-2.12c-.24-.08-7.81-.59-10-3.64S100.58,131.32,111.21,130.7Z"/><path class="cls-7" d="M97.52,118.91a.25.25,0,0,1-.11-.47c.14-.07.16-.32.16-.46a5.7,5.7,0,0,0-1.87-3.67c-.6-.3-.8-.23-.83-.21a.27.27,0,0,1-.29.22.25.25,0,0,1-.23-.27.55.55,0,0,1,.29-.39c.29-.16.71-.09,1.29.2,1,.51,2.15,2.89,2.15,4.12a.91.91,0,0,1-.44.91Z"/><path class="cls-7" d="M97,117.59a.25.25,0,0,1-.16-.06,3.13,3.13,0,0,1-.84-2.66.25.25,0,1,1,.5,0,2.67,2.67,0,0,0,.66,2.24.25.25,0,0,1-.16.44Z"/><circle class="cls-16" cx="104.89" cy="115.47" r="3.19"/><circle class="cls-16" cx="119.62" cy="114.89" r="3.19"/><path class="cls-7" d="M102.94,97.63s-4.42.51-3.75,9.54c.28,3.84,1.43,16.77,4.13,16.61s5.31-5.32,10-5.71,7.84,1.49,8.05,3.24c.3,2.4,0,12.68-8.05,13.19-11.66.74-14.77-9-15.54-20.19S96.81,97.14,102.94,97.63Z"/><path class="cls-7" d="M86.16,261.7a.25.25,0,0,1-.1-.48c6.71-3,6.76-19.52,6.76-19.69a.25.25,0,0,1,.25-.25h0a.25.25,0,0,1,.25.25,53.86,53.86,0,0,1-.86,8.83c-1.16,6.17-3.24,10-6.2,11.32Z"/><path class="cls-7" d="M112.82,258.29a.25.25,0,0,1-.25-.23l-1.47-16a.25.25,0,0,1,.5,0l1.47,16a.25.25,0,0,1-.23.27Z"/><path class="cls-7" d="M112.53,255.1a.28.28,0,0,1-.25-.25c0-.19.11-.34.38-.66,1-1.18,3.63-4.3,2.49-12.62a.25.25,0,0,1,.21-.28.26.26,0,0,1,.28.21c1.16,8.53-1.67,11.9-2.61,13a2.77,2.77,0,0,0-.27.34.22.22,0,0,1-.22.24Z"/><path class="cls-7" d="M139.16,255.1c-2.89,0-5.54-2.16-7.7-6.28a32.91,32.91,0,0,1-2.54-6.69.25.25,0,0,1,.19-.3.25.25,0,0,1,.3.19c0,.13,3.23,13.21,10.24,12.56a.25.25,0,0,1,.27.23.25.25,0,0,1-.23.27Z"/><path class="cls-7" d="M99.28,259.12a.25.25,0,0,1-.07-.49c1.6-.5,6.66-.55,9.81-.57-3.56-1-9.53-3.61-9.84-3.74a.25.25,0,0,1,.2-.46c.09,0,9.2,4,11.64,4.13.39,0,.59,0,.58.3s0,.26-1.94.27c-2.81,0-8.67,0-10.3.54Z"/><path class="cls-7" d="M124.18,260.22h-.08a35.08,35.08,0,0,0-5.28-.86c-3.14-.37-3.39-.43-3.39-.78s.34-.36.91-.42c3-.35,6.34-6.35,6.37-6.42a.25.25,0,0,1,.44.24c-.14.25-3.24,5.88-6.41,6.61.6.09,1.4.18,2.14.27a34.19,34.19,0,0,1,5.39.89.25.25,0,0,1-.08.49Z"/><path class="cls-17" d="M95.79,138c-9.3.7-19.82.84-28,28.2-2.84,9.48-4.08,31.69-15.3,46C41.67,226,37.11,230.93,37.11,230.93s1.67,7.33,7.51,9.26,15.8-9.61,20.4-15.91C82,201.09,82.38,179.19,86.16,174.53a23,23,0,0,0,4.55-10.06Z"/><path class="cls-7" d="M157.75,155.52a.25.25,0,0,1-.16-.44l3.12-2.69a.25.25,0,0,1,.33.38l-3.12,2.69A.25.25,0,0,1,157.75,155.52Z"/><path class="cls-7" d="M158.48,154.89a.25.25,0,0,1-.21-.11c-2.64-3.84-9.52-6.32-9.59-6.35a.25.25,0,0,1,.17-.47c.29.1,7.1,2.56,9.83,6.54a.25.25,0,0,1-.21.39Z"/><path class="cls-7" d="M159.42,154.08a.25.25,0,0,1-.23-.14c-1.68-3.58-8.71-6.52-9.32-6.61a.22.22,0,0,1-.26-.21.27.27,0,0,1,.23-.29h0c.63,0,8,3,9.78,6.89a.25.25,0,0,1-.12.33Z"/><path class="cls-7" d="M160.34,152.83a.25.25,0,0,1-.22-.12,14,14,0,0,0-7.77-5.81.25.25,0,0,1,.13-.48,14.23,14.23,0,0,1,8.07,6,.25.25,0,0,1-.09.34A.25.25,0,0,1,160.34,152.83Z"/><path class="cls-5" d="M113.4,120.67a2.34,2.34,0,0,1-2.23-1.54.25.25,0,0,1,.48-.15,1.83,1.83,0,0,0,2,1.19c1.47-.11,1.47-1,1.47-1a.25.25,0,0,1,.24-.26.26.26,0,0,1,.26.24s0,1.41-1.93,1.55Z"/></g></g></svg>