<svg xmlns="http://www.w3.org/2000/svg" viewBox="0 0 434.06 408.64"><defs><style>.cls-1,.cls-2,.cls-6{fill:#70cacd;}.cls-1{opacity:0.3;}.cls-2{opacity:0.5;}.cls-3{fill:#f4efd7;}.cls-4{fill:#24788b;}.cls-5{fill:#3d284c;}.cls-7{fill:#f05757;}.cls-8{fill:#d2373a;}.cls-9{fill:#e68684;}.cls-10{fill:#e57373;}</style></defs><title>Asset 1</title><g id="Layer_2" data-name="Layer 2"><g id="OBJECTS"><path class="cls-1" d="M111.22,124.33S244.63,16.52,301,62.07s6.15,89,31.52,91.08,78.75-41.94,98.75,9.26-75,107.06-58.69,110.43,44.35-4.32,43.42,14.5-82.9,89.6-135.56,81.85,26.23-55-5-51.85-87.59,72.19-127.4,26.55,43-122.15,7.49-112.54C97.09,247.18,31.67,194.27,111.22,124.33Z"/><path class="cls-1" d="M305.43,336.56s-153.1,77.36-198.64,21,12.69-88.26-11.66-95.67S9.32,286.29.53,232s95.8-88.9,80.59-95.63-44.27-5.1-39.4-23.31S141.6,42.94,191.45,61.58s-37.21,48.22-6.06,51.73,100.82-52.16,130.14.83-67.77,110.37-31,108.45C345.06,219.43,397.9,284.91,305.43,336.56Z"/><path class="cls-2" d="M320.81,266.38s-59.92,76.22-96.73,58.23-14.6-48.24-28.85-46.22-38.1,33-55.58,7.35,27.82-68.44,18.42-68.25-23.89,8-25.76-2.52,34.39-59.82,64.38-62.19-7.53,33.6,9.26,27.95,39.17-50.82,66.85-30.69-8.32,72.73,10.05,63C313.11,196.91,355.83,217.82,320.81,266.38Z"/><path class="cls-3" d="M53.82,71.85s99-.9,101.36-1.71S137.29,67.63,130.55,63,126,43.7,115.05,43.82,102.59,56,98.52,51.48s-8.22-14-20.12-9.65S71,68.32,63.25,67.2,25,72.15,53.82,71.85Z"/><path class="cls-3" d="M316.82,73.34s85.64-.73,87.67-1.43-15.47-2.18-21.3-6.16S379.29,49,369.8,49.13s-14.46,15.29-18,11.34-3.43-16.83-13.73-13.08S331.65,70.3,325,69.33,291.87,73.59,316.82,73.34Z"/><path class="cls-3" d="M197.55,26.74s87.94-.61,84.43-5.19c-1.26-1.65-15-1.43-20.79-5S256.69.59,247.55,1.1s-13.27,15.37-16.83,11.72-4-16.07-13.8-12-5.21,22.36-11.68,21.71S173.51,28.06,197.55,26.74Z"/><path class="cls-4" d="M208.11,278.36s-29.53,72.54-15.68,75.48c9.91,2.1,23.21,7.45,39.6-1.4C239.47,348.42,212.76,261.39,208.11,278.36Z"/><path class="cls-5" d="M211.1,298.13s0,68,0,69.35-1.47,1-1.47,1S209.43,287.46,211.1,298.13Z"/><path class="cls-5" d="M201.84,324.81l8.52,11.43c1.33-.5,10.17-11.82,10.11-10.56,0,.67-8.31,12.39-10.4,12.39C209.18,338.07,198.72,321.68,201.84,324.81Z"/><path class="cls-5" d="M201.84,339.87l8.52,11.43c1.33-.5,10.17-11.82,10.11-10.56,0,.67-8.31,12.39-10.4,12.39C209.06,353.13,198.72,336.74,201.84,339.87Z"/><path class="cls-5" d="M201.84,309.05l8.52,11.43c1.33-.5,10.17-11.82,10.11-10.56,0,.67-8.31,12.39-10.4,12.39C208.95,322.31,198.72,305.93,201.84,309.05Z"/><path class="cls-6" d="M235.69,299.14s-24.63,60.5-13.07,62.95c8.26,1.75,19.35,6.22,33-1.17C261.84,357.57,239.57,285,235.69,299.14Z"/><path class="cls-5" d="M238.18,315.62s0,56.74,0,57.84-1.23.81-1.23.81S236.79,306.73,238.18,315.62Z"/><path class="cls-5" d="M230.46,337.87l7.1,9.53c1.11-.42,8.48-9.86,8.43-8.8,0,.56-6.93,10.33-8.68,10.33C236.58,348.93,227.86,335.27,230.46,337.87Z"/><path class="cls-5" d="M230.46,350.43l7.1,9.53c1.11-.42,8.48-9.86,8.43-8.8,0,.56-6.93,10.33-8.68,10.33C236.49,361.49,227.86,347.82,230.46,350.43Z"/><path class="cls-5" d="M230.46,324.73l7.1,9.53c1.11-.42,8.48-9.86,8.43-8.8,0,.56-6.93,10.33-8.68,10.33C236.39,335.79,227.86,322.12,230.46,324.73Z"/><path class="cls-4" d="M365.93,264.12s-29.42,72.59-15.56,75.51c9.91,2.09,23.22,7.42,39.59-1.46C397.39,334.14,370.56,247.15,365.93,264.12Z"/><path class="cls-5" d="M368.95,283.88s.09,68,.1,69.35-1.47,1-1.47,1S367.26,273.22,368.95,283.88Z"/><path class="cls-5" d="M359.73,310.58,368.27,322c1.33-.5,10.15-11.84,10.09-10.57,0,.67-8.29,12.4-10.39,12.4C367.09,323.83,356.6,307.46,359.73,310.58Z"/><path class="cls-5" d="M359.76,325.64l8.53,11.42c1.33-.5,10.15-11.84,10.09-10.57,0,.67-8.29,12.4-10.39,12.4C367,338.89,356.63,322.52,359.76,325.64Z"/><path class="cls-5" d="M359.71,294.82l8.53,11.42c1.33-.5,10.15-11.84,10.09-10.57,0,.67-8.29,12.4-10.39,12.4C366.84,308.07,356.58,291.7,359.71,294.82Z"/><path class="cls-6" d="M339.34,305.7s-24.63,60.5-13.07,62.95c8.26,1.75,19.35,6.22,33-1.17C365.49,364.13,343.21,291.55,339.34,305.7Z"/><path class="cls-5" d="M341.83,322.19s0,56.74,0,57.84-1.23.81-1.23.81S340.43,313.29,341.83,322.19Z"/><path class="cls-5" d="M334.11,344.44l7.1,9.53c1.11-.42,8.48-9.86,8.43-8.8,0,.56-6.93,10.33-8.68,10.33C340.23,355.5,331.5,341.83,334.11,344.44Z"/><path class="cls-5" d="M334.11,357l7.1,9.53c1.11-.42,8.48-9.86,8.43-8.8,0,.56-6.93,10.33-8.68,10.33C340.13,368.05,331.5,354.39,334.11,357Z"/><path class="cls-5" d="M334.11,331.29l7.1,9.53c1.11-.42,8.48-9.86,8.43-8.8,0,.56-6.93,10.33-8.68,10.33C340,342.35,331.5,328.69,334.11,331.29Z"/><path class="cls-7" d="M406.12,289.9s-29.53,72.54-15.68,75.48c9.91,2.1,23.21,7.45,39.6-1.4C437.48,360,410.77,272.93,406.12,289.9Z"/><path class="cls-5" d="M409.11,309.66s0,68,0,69.35-1.47,1-1.47,1S407.44,299,409.11,309.66Z"/><path class="cls-5" d="M399.85,336.34l8.52,11.43c1.33-.5,10.17-11.82,10.11-10.56,0,.67-8.31,12.39-10.4,12.39C407.19,349.6,396.73,333.22,399.85,336.34Z"/><path class="cls-5" d="M399.85,351.4l8.52,11.43c1.33-.5,10.17-11.82,10.11-10.56,0,.67-8.31,12.39-10.4,12.39C407.07,364.66,396.73,348.28,399.85,351.4Z"/><path class="cls-5" d="M399.85,320.59,408.37,332c1.33-.5,10.17-11.82,10.11-10.56,0,.67-8.31,12.39-10.4,12.39C407,333.85,396.73,317.46,399.85,320.59Z"/><path class="cls-4" d="M83.92,287.13S54.5,359.71,68.36,362.63c9.91,2.09,23.22,7.42,39.59-1.46C115.39,357.14,88.55,270.15,83.92,287.13Z"/><path class="cls-5" d="M86.94,306.89s.09,68,.1,69.35-1.47,1-1.47,1S85.25,296.22,86.94,306.89Z"/><path class="cls-5" d="M77.73,333.58,86.26,345c1.33-.5,10.15-11.84,10.09-10.57,0,.67-8.29,12.4-10.39,12.4C85.08,346.83,74.6,330.46,77.73,333.58Z"/><path class="cls-5" d="M77.75,348.64l8.53,11.42c1.33-.5,10.15-11.84,10.09-10.57,0,.67-8.29,12.4-10.39,12.4C85,361.89,74.62,345.52,77.75,348.64Z"/><path class="cls-5" d="M77.7,317.82l8.53,11.42c1.33-.5,10.15-11.84,10.09-10.57,0,.67-8.29,12.4-10.39,12.4C84.83,331.07,74.57,314.7,77.7,317.82Z"/><path class="cls-6" d="M45.42,277.93s-24.63,60.5-13.07,62.95c8.26,1.75,19.35,6.22,33-1.17C71.57,336.36,49.3,263.78,45.42,277.93Z"/><path class="cls-5" d="M47.91,294.41s0,56.74,0,57.84-1.23.81-1.23.81S46.52,285.51,47.91,294.41Z"/><path class="cls-5" d="M40.19,316.66l7.1,9.53c1.11-.42,8.48-9.86,8.43-8.8,0,.56-6.93,10.33-8.68,10.33C46.31,327.72,37.59,314.05,40.19,316.66Z"/><path class="cls-5" d="M40.19,329.22l7.1,9.53c1.11-.42,8.48-9.86,8.43-8.8,0,.56-6.93,10.33-8.68,10.33C46.22,340.28,37.59,326.61,40.19,329.22Z"/><path class="cls-5" d="M40.19,303.52l7.1,9.53c1.11-.42,8.48-9.86,8.43-8.8,0,.56-6.93,10.33-8.68,10.33C46.12,314.58,37.59,300.91,40.19,303.52Z"/><path class="cls-7" d="M22.1,298.43S-7.43,371,6.42,373.91c9.91,2.1,23.21,7.45,39.6-1.4C53.46,368.49,26.75,281.45,22.1,298.43Z"/><path class="cls-5" d="M25.09,318.19s0,68,0,69.35-1.47,1-1.47,1S23.41,307.52,25.09,318.19Z"/><path class="cls-5" d="M15.83,344.87l8.52,11.43c1.33-.5,10.17-11.82,10.11-10.56,0,.67-8.31,12.39-10.4,12.39C23.17,358.13,12.71,341.75,15.83,344.87Z"/><path class="cls-5" d="M15.83,359.93l8.52,11.43c1.33-.5,10.17-11.82,10.11-10.56,0,.67-8.31,12.39-10.4,12.39C23.05,373.19,12.71,356.8,15.83,359.93Z"/><path class="cls-5" d="M15.83,329.11l8.52,11.43c1.33-.5,10.17-11.82,10.11-10.56,0,.67-8.31,12.39-10.4,12.39C22.94,342.37,12.71,326,15.83,329.11Z"/><path class="cls-8" d="M288.81,198.36s49.49-5.9,53.31-12.16,0-100.94-14.16-102.54-40.34-2.25-50.14,6S277.11,199.93,288.81,198.36Z"/><path class="cls-7" d="M339.67,117.66s-62.93,7.48-67.81,15.49-.2,129.44,17.81,131.51,51.28,3,63.76-7.66S354.55,115.67,339.67,117.66Z"/><path class="cls-8" d="M363,151.48s.57-5.38-21.81-3.72c-1.55.11,5.84,64,5.84,64s18.19,1.41,19.67-2S363,151.48,363,151.48Z"/><path class="cls-9" d="M257.08,272.31S253.94,334,267,402.85c0,0-5.78,3.72-7.6,3.72s14.89-1.92,14.89-1.92,2.18-25.37,1.47-67.11c-.13-7.84,12.81-54.84,12.81-54.84s2.7,41.08,4,49.26c1.75,10.86,14.88,69.94,14.88,69.94s-14.49,4.66-11.21,4.66h18S316.85,372,312.72,340c-1.28-9.89,8.47-71.22,8.47-71.22S271.55,263.94,257.08,272.31Z"/><path class="cls-7" d="M315.28,384.18s-10.56.06-12.55.34l3.67,16.94s-7.65,2.62-9,2.92-4.13,1.57-4.59,2.39,23.25,0,23.25,0Z"/><path class="cls-5" d="M316,405.76s-10.1-.15-15,0-7.29.17-7.29.17a2,2,0,0,0-1.58,2.12s23.41.92,23.87.46S316,405.76,316,405.76Z"/><path class="cls-5" d="M306.82,390.62s-4.35.16-3.44.91S308,391.47,306.82,390.62Z"/><path class="cls-5" d="M307.32,392.81s-4.31.62-3.33,1.27S308.61,393.53,307.32,392.81Z"/><path class="cls-5" d="M307.8,395.66s-4.32.54-3.34,1.21S309.09,396.4,307.8,395.66Z"/><path class="cls-5" d="M308.31,398.43s-4.35.21-3.42,1S309.53,399.26,308.31,398.43Z"/><path class="cls-5" d="M307.93,401.27s-4.28-.8-3.55.14S308.93,402.36,307.93,401.27Z"/><path class="cls-5" d="M315.41,388.12h-11.9l-.78-3.6s12.65-.6,12.55-.34S315.41,388.12,315.41,388.12Z"/><path class="cls-7" d="M275.58,384.18s-10.56.06-12.55.34l3.67,16.94s-7.65,2.62-9,2.92-4.13,1.57-4.59,2.39,23.25,0,23.25,0Z"/><path class="cls-5" d="M276.34,405.76s-10.1-.15-15,0-7.29.17-7.29.17a2,2,0,0,0-1.58,2.12s23.41.92,23.87.46S276.34,405.76,276.34,405.76Z"/><path class="cls-5" d="M267.12,390.62s-4.35.16-3.44.91S268.32,391.47,267.12,390.62Z"/><path class="cls-5" d="M267.62,392.81s-4.31.62-3.33,1.27S268.91,393.53,267.62,392.81Z"/><path class="cls-5" d="M268.1,395.66s-4.32.54-3.34,1.21S269.39,396.4,268.1,395.66Z"/><path class="cls-5" d="M268.61,398.43s-4.35.21-3.42,1S269.83,399.26,268.61,398.43Z"/><path class="cls-5" d="M268.23,401.27s-4.28-.8-3.55.14S269.23,402.36,268.23,401.27Z"/><path class="cls-5" d="M275.71,388.12h-11.9l-.78-3.6s12.65-.6,12.55-.34S275.71,388.12,275.71,388.12Z"/><path class="cls-5" d="M256.75,300.19s14.93,2.72,26.86.51l2-7.52s-23.95-2.86-28.83-1.36Z"/><path class="cls-5" d="M289.71,299.69s17.37,1.45,27,0c0,0,1.46-6.27,1.78-7.55H289.17S289.56,297.74,289.71,299.69Z"/><path class="cls-7" d="M269.07,336.32s-.25,8.08-4.25,8.17-5.33-9.67-4-8.92,1.58,8.17,3.5,7.33,3.33-4.33,3.75-6.83S269.07,336.32,269.07,336.32Z"/><path class="cls-7" d="M305.38,337.37s-.25,8.08-4.25,8.17-5.33-9.67-4-8.92,1.58,8.17,3.5,7.33,3.33-4.33,3.75-6.83S305.38,337.37,305.38,337.37Z"/><path class="cls-9" d="M320.09,163.8s64,52,48.86,54.36c-18.33,2.91-9.78,3.85-9.78,3.85s-52.56-43.18-53.53-54S320.09,163.8,320.09,163.8Z"/><path class="cls-9" d="M305.16,125.64s-1,29.35,1.57,34-22.38,26-19.83,3.13c.64-5.77,2.67-20.89,3.53-33.59C290.43,129.23,305.6,120.71,305.16,125.64Z"/><path class="cls-9" d="M271.64,114.71s1.34,30.5,13.12,30.15,25.94-37.59,10.59-40.47S270.6,103.44,271.64,114.71Z"/><path class="cls-6" d="M305.1,158.35s-3,15.33-14.3,12.53c-4.18-1-3.54-11.16-3.54-11.16s-16.68-1.93-23.56,20c-6.11,19.46-13.83,111.66-13.83,111.66s68.63,4.82,79.9,0c0,0,.53-105.23-2.9-119.83C325,163.8,305.1,158.35,305.1,158.35Z"/><path class="cls-6" d="M332,198.37s15.68-6.74,14.76-12.73S328,163.8,313,158.35c0,0-.69,16.86,0,19.77S321.84,194.61,332,198.37Z"/><path class="cls-6" d="M262.26,198.37s-15.68-6.74-14.76-12.73,18.24-19.68,33.24-25.13c0,0,1.2,14.7.5,17.6S272.43,194.61,262.26,198.37Z"/><path class="cls-3" d="M285.31,135.65s.36,2.57-1.17,2.44-1.95-2.15-2.3-2.2c-.55-.08.69,3.35,2.87,2.88C286.55,138.38,285.56,134.22,285.31,135.65Z"/><path class="cls-7" d="M282.58,122.4s4,10.54.41,12.15S282.31,131.93,282.58,122.4Z"/><path class="cls-3" d="M274.81,124.63a2.91,2.91,0,0,1,3-2.21c1.86.18,2.52,1.91,1.9,2.12s-1.72-.69-2.88-.23C276,124.66,274.81,126,274.81,124.63Z"/><path class="cls-3" d="M287.15,122.77a2.91,2.91,0,0,1,3.36-1.68c1.81.48,2.17,2.3,1.53,2.4s-1.59-1-2.8-.7C288.31,123,286.93,124.14,287.15,122.77Z"/><circle class="cls-5" cx="279.42" cy="128.16" r="1.32" transform="matrix(0.04, -1, 1, 0.04, 140.59, 402.44)"/><circle class="cls-5" cx="289" cy="128.16" r="1.32" transform="matrix(0.04, -1, 1, 0.04, 149.8, 412)"/><circle class="cls-10" cx="276.84" cy="132.55" r="2.03" transform="translate(133.72 404.07) rotate(-87.79)"/><circle class="cls-10" cx="292.34" cy="132.55" r="2.03" transform="translate(148.63 419.56) rotate(-87.79)"/><path class="cls-5" d="M289,143.3s7.88-3.91,8.61-6.21,3.24,4.51,2.77,6.87c-1.81,9.22-12.7,10.7-12.4,9.78C288.1,153.37,289,145.24,289,143.3Z"/><path class="cls-5" d="M329.62,248.91s-17.42,2.32-21,2.78-16-4.35-21.88-2.45c-16.13,5.22-25.07,1.56-32.35-1.22l.58-9.46h74.67Z"/><path class="cls-8" d="M311.89,151.83s-9.47,48.62-.07,66a117.13,117.13,0,0,0,18,25.07l2.7-10s-16-14.69-16.06-29.06c0-18.31,2.46-50.46,2.46-50.46Z"/><path class="cls-8" d="M273.66,164a129.22,129.22,0,0,1-5,41.23,52.61,52.61,0,0,1-12.4,21.49l-1.46,11.17a173.26,173.26,0,0,0,18.85-25.31c9.3-15.14,9.19-52.81,9.19-52.81A14,14,0,0,0,273.66,164Z"/><polygon class="cls-3" points="237.72 177.62 258.61 186.94 283.24 182.85 303.13 186.94 333.15 182.28 335.7 240.97 311.09 244.64 286.71 240.97 266.3 246.09 248.91 234.57 234.73 233.61 237.72 177.62"/><path class="cls-9" d="M235.57,202.72a13.71,13.71,0,0,1,8.61-8c2.56-.85-1,7.14-7.59,13.47C233.13,211.57,235.57,202.72,235.57,202.72Z"/><path class="cls-9" d="M328.77,205.69s-5.47-10.39-9.29-8.75c-2.47,1.06,3.83,11.3,6.47,14.12,8.94,9.52,43.64,23.06,45.1,5.84C372,205.29,334.84,214,328.77,205.69Z"/><path class="cls-3" d="M271.07,122.4c4.28-4.76,12.84-23.3,13.42-17.32,1.21,12.55,14.2,16.46,13.46,21.76-2.62,18.8,5.71,21.06,5.91,27,.51,15.35,14.33,17.73,30.22,17.07s10.24-25.36,1.39-27.24c-10.7-2.27-6-7.54-8.06-12.65-3.05-7.66-13.61-6.37-14.68-11.86-2.12-10.87-3.15-17.19-12.23-22.64-3.76-2.25-13.68-6.87-23.65-.09C266,103.81,268.11,125.69,271.07,122.4Z"/><path class="cls-9" d="M303.6,127.84s-.24-4.13-2.5-3.88-4,7.86-.79,9.19S303.6,127.84,303.6,127.84Z"/><path class="cls-5" d="M272.13,103.7s9.63-2.33,9.79,1.49-3.65,8.8-7.85,7.4S269.42,104.19,272.13,103.7Z"/><path class="cls-5" d="M285,103.7s9.63-2.33,9.79,1.49-3.65,8.8-7.85,7.4S282.25,104.19,285,103.7Z"/><path class="cls-5" d="M277.4,103s13.88-.12,14,.23-2.82,1-3.44,1l-8.52-.12Z"/><path class="cls-5" d="M284.66,106.3c-.34-.14-1.9-1.67-3.45,0s-.22,1.61,0,1.61,1.55-2.44,2.08-.39S287.41,107.42,284.66,106.3Z"/><path class="cls-3" d="M291.72,104.19s1.91-.21,2.05.91-1.31.47-1.82,0S291.06,104.19,291.72,104.19Z"/><path class="cls-3" d="M278.57,104.19s1.91-.21,2.05.91-1.31.47-1.82,0S277.92,104.19,278.57,104.19Z"/><path class="cls-9" d="M180.84,272.51S184,334.21,171,403c0,0,5.78,3.72,7.6,3.72s-14.89-1.92-14.89-1.92-3.49-27.78-.64-69.59c.53-7.82-13.64-52.35-13.64-52.35s-2.7,41.08-4,49.26c-1.75,10.86-14.88,69.94-14.88,69.94s14.49,4.66,11.21,4.66h-18s-4.3-37.58,4.08-67.13c2.72-9.6-13.21-67.13-13.21-67.13S166.37,264.14,180.84,272.51Z"/><path class="cls-6" d="M162.34,384.18s10.56.06,12.55.34l-3.67,16.94s7.65,2.62,9,2.92,4.13,1.57,4.59,2.39-23.25,0-23.25,0Z"/><path class="cls-5" d="M161.58,405.76s10.1-.15,15,0,7.29.17,7.29.17a2,2,0,0,1,1.58,2.12s-23.41.92-23.87.46S161.58,405.76,161.58,405.76Z"/><path class="cls-5" d="M170.8,390.62s4.35.16,3.44.91S169.59,391.47,170.8,390.62Z"/><path class="cls-5" d="M170.3,392.81s4.31.62,3.33,1.27S169,393.53,170.3,392.81Z"/><path class="cls-5" d="M169.81,395.66s4.32.54,3.34,1.21S168.53,396.4,169.81,395.66Z"/><path class="cls-5" d="M169.31,398.43s4.35.21,3.42,1S168.09,399.26,169.31,398.43Z"/><path class="cls-5" d="M169.69,401.27s4.28-.8,3.55.14S168.69,402.36,169.69,401.27Z"/><path class="cls-5" d="M162.21,388.12h11.9l.78-3.6s-12.65-.6-12.55-.34S162.21,388.12,162.21,388.12Z"/><path class="cls-5" d="M180.6,316.78c-1.32.3-8.79,1.51-21.24,0l-2.58-9.37s21.51,1.54,23.86,0Z"/><path class="cls-7" d="M168.23,338.94s.25,8.08,4.25,8.17,5.33-9.67,4-8.92-1.58,8.17-3.5,7.33-3.33-4.33-3.75-6.83S168.23,338.94,168.23,338.94Z"/><path class="cls-3" d="M191.56,79.54v27.65s13.11.11,14.58,0,1.23-25.82,1.12-27.65S195.25,78.62,191.56,79.54Z"/><path class="cls-4" d="M81.81,99.17S154.28,88,156.58,93.64s.83,111.89.83,111.89S91.49,216.27,85,209.75,81.81,99.17,81.81,99.17Z"/><path class="cls-6" d="M112.25,272.51s6.13,31.05,7.19,37.94c0,0,22.81,1.61,28.45-.69l1.5-26.85L154,309.07s21,1.42,28.3-.41c0,0-1.15-31-1.2-39.87C181.1,268.79,127.41,267.62,112.25,272.51Z"/><path class="cls-6" d="M74.46,148.22s-4.74-10.84,87.74-7.69c6.39.22,4,115.71,4,115.71s-78.5,9.86-86.28,3.22S74.46,148.22,74.46,148.22Z"/><path class="cls-4" d="M67,172.67s-1.17-4.78,21.25-5.34c1.55,0,1.39,57.92,1.39,57.92s-17.91,2.93-19.76,0S67,172.67,67,172.67Z"/><path class="cls-5" d="M156.83,101.95c-.09-.24-2.14-25.24-13.23-23.26C126,81.84,136.32,91.5,129,91.67S117.07,96.4,116.66,102c-.48,6.39,5.23,9.11.43,13.51-4.29,3.92,5.28,18.14,15,11.29S161.62,114.89,156.83,101.95Z"/><path class="cls-9" d="M129,125s2.32,22.23-.24,26.93,16.85,28.49,19.09,17.87c1.2-5.68-3.27-28.51-4.12-41.21C143.77,128.61,128.6,120.09,129,125Z"/><path class="cls-9" d="M157.59,104.4s8.25,29.39-3.05,32.74-36.39-27.61-22.7-35.14S155.05,93.37,157.59,104.4Z"/><path class="cls-5" d="M128.59,103.37s7.41,27.16,13.08,25.54,8-15.55,13.72-11.91c8.26,5.21,6.7,20.73-5.27,21.42s-29-22.45-25.31-32.36S128.59,103.37,128.59,103.37Z"/><path class="cls-7" d="M147,108.58s1.56,11.16,5.48,10.85S151.84,116.8,147,108.58Z"/><path class="cls-5" d="M143.4,107.21c.14-.65-1.88-1.81-3.91-.74s-2.9,3.79-2,3.6,2.13-2.41,3.39-2.49S143.18,108.25,143.4,107.21Z"/><path class="cls-5" d="M131,100s6.74,11.13-.91,13.05S126.1,95.69,131,100Z"/><path class="cls-5" d="M150,105.82a2.91,2.91,0,0,1,3-2.21c1.86.18,2.52,1.91,1.9,2.12s-1.72-.69-2.88-.23C151.16,105.85,150,107.21,150,105.82Z"/><circle class="cls-5" cx="143.06" cy="111.61" r="1.32" transform="matrix(0.04, -1, 1, 0.04, 26.02, 250.26)"/><circle class="cls-5" cx="153.62" cy="109.99" r="1.32" transform="translate(37.79 259.26) rotate(-87.79)"/><circle class="cls-10" cx="154.78" cy="114.2" r="2.03" transform="translate(34.69 264.46) rotate(-87.79)"/><path class="cls-5" d="M128.8,151.95s7.19,19,15.57,14.26c3.75-2.11,2.15-14.26,2.15-14.26A31.23,31.23,0,0,1,174,169.54c9.18,18.21,10.18,101.89,10.18,101.89s-60.65,5.9-71.92,1.07c0,0-4.6-82.13-4.39-97.13S128.8,151.95,128.8,151.95Z"/><path class="cls-9" d="M112.25,163.8S70.93,184.15,75,226.46c0,0,10.78,6.68,14.32-6,3.21-11.47,14.24-27.24,33-36.34C122.34,184.15,112.72,174.58,112.25,163.8Z"/><path class="cls-5" d="M89.29,181.48s9.52,14.13,14.23,17.16c0,0,24.51-12.05,26-19.66s-3.07-26-3.07-26S107.85,159.45,89.29,181.48Z"/><path class="cls-4" d="M123.89,155.78s13.11,44,7.27,60.35S111,250.25,111,250.25l-1.26-13.48s13.7-19.49,15.07-30-8.32-48.48-8.32-48.48S123,152.62,123.89,155.78Z"/><path class="cls-9" d="M75,226.46s-3.12,13.76,13.4,4.13,22.46-24.17,32.73-28.72c8.52-3.78,11.79-1,14-1.12s-1.48-13.09-15.57-4.93S80.94,210.4,75,226.46Z"/><path class="cls-6" d="M122.64,384.18s10.56.06,12.55.34l-3.67,16.94s7.65,2.62,9,2.92,4.13,1.57,4.59,2.39-23.25,0-23.25,0Z"/><path class="cls-5" d="M121.88,405.76s10.1-.15,15,0,7.29.17,7.29.17a2,2,0,0,1,1.58,2.12s-23.41.92-23.87.46S121.88,405.76,121.88,405.76Z"/><path class="cls-5" d="M131.1,390.62s4.35.16,3.44.91S129.89,391.47,131.1,390.62Z"/><path class="cls-5" d="M130.6,392.81s4.31.62,3.33,1.27S129.31,393.53,130.6,392.81Z"/><path class="cls-5" d="M130.11,395.66s4.32.54,3.34,1.21S128.83,396.4,130.11,395.66Z"/><path class="cls-5" d="M129.61,398.43s4.35.21,3.42,1S128.39,399.26,129.61,398.43Z"/><path class="cls-5" d="M130,401.27s4.28-.8,3.55.14S129,402.36,130,401.27Z"/><path class="cls-5" d="M122.51,388.12h11.9l.78-3.6s-12.65-.6-12.55-.34S122.51,388.12,122.51,388.12Z"/><path class="cls-9" d="M166.19,159.41s19.34,3.21,40.45-10.76,10.1-47-1-49.27c-3.64-.74-13.36-.86-12.87-2,2.72-6.16,10.77-5.36,14.54-4.19,8.07,2.51,35.73,25.44,21.66,57.21S175.73,181,175.73,181,167.84,168.48,166.19,159.41Z"/><path class="cls-5" d="M190.11,154.81s11.32,22.23,11.32,25-28.15,6.67-30.29,4.28-13.4-28.68-10.58-28.49S182.13,156.15,190.11,154.81Z"/><path class="cls-4" d="M163.38,155.78s4.83,29.4,9.44,46.09c4.15,15,10.39,24.07,10.39,24.07v14.36s-15.87-23.87-17.64-34.36C162.86,189.86,154,153,154,153S162.49,152.62,163.38,155.78Z"/><path class="cls-3" d="M154.5,121.21s.59,2.52-.94,2.54-2.14-2-2.49-2c-.56,0,1,3.27,3.12,2.61C156,123.82,154.62,119.77,154.5,121.21Z"/><circle class="cls-10" cx="141.18" cy="117.22" r="2.03" transform="translate(18.6 253.78) rotate(-87.79)"/><path class="cls-9" d="M130.09,114.58s-1.76-3.74-3.76-2.67-.77,8.77,2.68,8.83S130.09,114.58,130.09,114.58Z"/><path class="cls-5" d="M129,120.74s4.33,17.33,8.8,21.23,7.85,2.89,7.85,2.89l-1.48-10.2A58.31,58.31,0,0,1,129,120.74Z"/><path class="cls-5" d="M146.9,317a42.75,42.75,0,0,1-21,2.33l-1.77-8.61s21.44.59,23.79-1Z"/><circle class="cls-5" cx="204.11" cy="81.61" r="1.31"/><path class="cls-7" d="M134.85,336.85s.25,8.08,4.25,8.17,5.33-9.67,4-8.92-1.58,8.17-3.5,7.33-3.33-4.33-3.75-6.83S134.85,336.85,134.85,336.85Z"/><path class="cls-5" d="M143.34,281.73a30.76,30.76,0,0,0,6.06,1.18c2.21,0,8-2.94,8.18-2.13s-3.2,3.7-8.31,4.15S139.14,280.74,143.34,281.73Z"/><path class="cls-3" d="M151.42,89.31s-.86-7.13-5.61-8.31-.77,2.06-.56,3.64S141.38,81,139.67,83s4.16,3.5,2.57,4.86-5.47-3.36-5.46-1.52,2,6.28,3.52,5.93-1.52-2.76.38-2.47,4.27,2.14,4.43.68-1.68-3.57.13-3.53C148.75,87.08,151.13,95,151.42,89.31Z"/><path class="cls-7" d="M249.87,129.53a11.92,11.92,0,0,0-11.92,11.92c0,6.58,11.92,26.32,11.92,26.32s11.92-19.73,11.92-26.32A11.92,11.92,0,0,0,249.87,129.53Zm0,18.47a6.33,6.33,0,1,1,6.33-6.33A6.33,6.33,0,0,1,249.87,148Z"/><path class="cls-3" d="M185.81,81.25a.5.5,0,0,1-.29-.1s-.46-.34-1.19-1a.5.5,0,1,1,.65-.76c.69.59,1.12.91,1.13.92a.5.5,0,0,1-.29.9Z"/><path class="cls-3" d="M246.74,120.07a.5.5,0,0,1-.5-.45c-.1-1-.17-2-.2-3a.5.5,0,0,1,.49-.51.51.51,0,0,1,.51.49c0,1,.09,1.94.19,2.93a.5.5,0,0,1-.45.55Zm-.16-5.94h0a.5.5,0,0,1-.47-.53c.05-1,.15-2,.29-3a.5.5,0,0,1,1,.15c-.14.93-.23,1.91-.29,2.91A.5.5,0,0,1,246.58,114.14Zm.88-5.87-.13,0a.5.5,0,0,1-.36-.61,22.09,22.09,0,0,1,1-2.88.5.5,0,1,1,.92.39,21.28,21.28,0,0,0-.93,2.75A.5.5,0,0,1,247.46,108.27Zm2.31-5.45a.49.49,0,0,1-.26-.08.5.5,0,0,1-.16-.69,16.6,16.6,0,0,1,1.85-2.44.5.5,0,0,1,.74.68,15.56,15.56,0,0,0-1.74,2.29A.5.5,0,0,1,249.77,102.82Zm4-4.34a.5.5,0,0,1-.3-.9A17,17,0,0,1,256.08,96a.5.5,0,1,1,.44.9,15.93,15.93,0,0,0-2.46,1.49A.5.5,0,0,1,253.77,98.48Zm5.18-2.88a.5.5,0,0,1-.25-.93,27.68,27.68,0,0,0,2.44-1.6.5.5,0,1,1,.59.81,28.87,28.87,0,0,1-2.53,1.65A.5.5,0,0,1,258.95,95.59Zm4.8-3.49a.5.5,0,0,1-.33-.87c.72-.64,1.43-1.32,2.1-2a.5.5,0,0,1,.73.69c-.69.74-1.42,1.44-2.17,2.1A.5.5,0,0,1,263.75,92.1Zm4.07-4.32a.5.5,0,0,1-.39-.81c.61-.77,1.18-1.57,1.71-2.38a.5.5,0,0,1,.84.55c-.54.83-1.14,1.66-1.76,2.45A.5.5,0,0,1,267.82,87.78Zm3.24-5a.5.5,0,0,1-.44-.73,28.85,28.85,0,0,0,1.23-2.65.5.5,0,1,1,.93.37,29.59,29.59,0,0,1-1.27,2.74A.5.5,0,0,1,271.06,82.81Zm-26-2.57h0a10.57,10.57,0,0,1-3.05-.58.5.5,0,1,1,.32-.95,9.59,9.59,0,0,0,2.76.53.5.5,0,0,1,0,1Zm2.92-.41a.5.5,0,0,1-.16-1,8,8,0,0,0,2.44-1.33.5.5,0,0,1,.62.78,9,9,0,0,1-2.75,1.5Zm-8.51-1.41a.5.5,0,0,1-.26-.07,18.63,18.63,0,0,1-1.55-1q-.49-.37-.92-.76a.5.5,0,1,1,.67-.75q.4.36.86.7c.49.37,1,.7,1.46,1a.5.5,0,0,1-.26.93Zm-57-.15a.5.5,0,0,1-.36-.15c-.71-.73-1.38-1.5-2-2.27a.5.5,0,0,1,.78-.62c.59.75,1.24,1.48,1.93,2.2a.5.5,0,0,1-.36.85Zm90.77-1-.13,0a.5.5,0,0,1-.35-.61,22,22,0,0,0,.58-2.84.5.5,0,0,1,.56-.43.5.5,0,0,1,.43.56,22.93,22.93,0,0,1-.61,3A.5.5,0,0,1,273.26,77.3Zm-20.68-1.05a.5.5,0,0,1-.41-.79,12.41,12.41,0,0,0,1.34-2.51.5.5,0,0,1,.93.37A13.45,13.45,0,0,1,253,76,.5.5,0,0,1,252.57,76.25Zm-17.46-1.82a.5.5,0,0,1-.42-.23,9.39,9.39,0,0,1-1.23-2.87.5.5,0,0,1,1-.23,8.4,8.4,0,0,0,1.1,2.56.5.5,0,0,1-.42.77Zm-56.31-.81a.5.5,0,0,1-.42-.23,22.14,22.14,0,0,1-1.44-2.68.5.5,0,0,1,.91-.41,21.15,21.15,0,0,0,1.37,2.55.5.5,0,0,1-.42.77ZM274,71.43a.5.5,0,0,1-.5-.49,16.68,16.68,0,0,0-.3-2.86.5.5,0,1,1,1-.19,17.61,17.61,0,0,1,.32,3,.5.5,0,0,1-.49.51Zm-19.23-.65h-.09a.5.5,0,0,1-.4-.58,18.09,18.09,0,0,0,.3-2.87.5.5,0,0,1,.5-.49h0a.5.5,0,0,1,.49.51,19,19,0,0,1-.32,3A.5.5,0,0,1,254.79,70.78Zm-21-2h0a.5.5,0,0,1-.45-.54,11.31,11.31,0,0,1,.73-3,.5.5,0,1,1,.93.36,10.32,10.32,0,0,0-.67,2.74A.5.5,0,0,1,233.75,68.76Zm-57.34-.56a.5.5,0,0,1-.48-.38,15.3,15.3,0,0,1-.47-3,.5.5,0,0,1,.47-.52.49.49,0,0,1,.52.47,14.22,14.22,0,0,0,.44,2.83.5.5,0,0,1-.36.61Zm96.44-2.57a.5.5,0,0,1-.46-.31,15,15,0,0,0-1.33-2.54.5.5,0,1,1,.84-.55,15.85,15.85,0,0,1,1.42,2.71.5.5,0,0,1-.46.69ZM255,64.87a.5.5,0,0,1-.5-.44,22.21,22.21,0,0,0-.54-2.85.5.5,0,1,1,1-.25,23,23,0,0,1,.56,3,.5.5,0,0,1-.44.56Zm-19.15-1.61a.5.5,0,0,1-.42-.77,17.9,17.9,0,0,1,1.9-2.39.5.5,0,1,1,.73.68A16.87,16.87,0,0,0,236.23,63,.5.5,0,0,1,235.82,63.26Zm-59.68-.94h-.08a.5.5,0,0,1-.41-.58,14.61,14.61,0,0,1,.84-3,.5.5,0,0,1,.93.37,13.63,13.63,0,0,0-.78,2.75A.5.5,0,0,1,176.14,62.32Zm93.5-1.63a.5.5,0,0,1-.36-.16,18.46,18.46,0,0,0-2.15-1.93.5.5,0,0,1,.61-.79,19.49,19.49,0,0,1,2.27,2,.5.5,0,0,1-.36.84ZM253.5,59.12a.5.5,0,0,1-.47-.32,25.15,25.15,0,0,0-1.22-2.64.5.5,0,1,1,.88-.47A26.17,26.17,0,0,1,254,58.44a.5.5,0,0,1-.47.68Zm-13.65-.19a.5.5,0,0,1-.31-.89,22.72,22.72,0,0,1,2.5-1.72.5.5,0,1,1,.51.86,21.78,21.78,0,0,0-2.39,1.64A.5.5,0,0,1,239.85,58.93ZM265,57.07a.49.49,0,0,1-.25-.07l-.48-.27a22.53,22.53,0,0,0-2.12-1,.5.5,0,0,1,.38-.92,23.6,23.6,0,0,1,2.21,1.07l.5.28a.5.5,0,0,1-.25.93Zm-86.65-.24a.5.5,0,0,1-.42-.77,21.08,21.08,0,0,1,1.81-2.44.5.5,0,0,1,.76.65,20,20,0,0,0-1.72,2.33A.5.5,0,0,1,178.3,56.83ZM245,55.91a.5.5,0,0,1-.2-1,23.81,23.81,0,0,1,2.86-1,.5.5,0,0,1,.27,1,22.78,22.78,0,0,0-2.74,1A.49.49,0,0,1,245,55.91Zm14.54-1.12-.13,0a21.34,21.34,0,0,0-2.85-.56.5.5,0,0,1-.43-.56.51.51,0,0,1,.56-.43,22.18,22.18,0,0,1,3,.58.5.5,0,0,1-.13,1Zm-8.84-.5a.5.5,0,0,1-.43-.75c-.24-.35-.49-.7-.75-1s-.6-.76-.93-1.12a.5.5,0,1,1,.74-.67c.35.38.68.78,1,1.19s.59.81.87,1.22a.5.5,0,0,1,.06.11,22.67,22.67,0,0,1,2.41-.16h0a.5.5,0,0,1,0,1,21.79,21.79,0,0,0-2.89.23Zm-68.51-2a.5.5,0,0,1-.33-.87,25.89,25.89,0,0,1,2.38-1.87.5.5,0,0,1,.57.82,24.79,24.79,0,0,0-2.29,1.8A.5.5,0,0,1,182.14,52.32Zm64.61-2.81a.5.5,0,0,1-.31-.11,23.22,23.22,0,0,0-2.37-1.68.5.5,0,0,1,.53-.85,24.23,24.23,0,0,1,2.48,1.75.5.5,0,0,1-.31.89ZM187,48.91a.5.5,0,0,1-.25-.94c.84-.48,1.74-.94,2.67-1.38a.5.5,0,1,1,.42.91c-.91.43-1.79.88-2.61,1.34A.5.5,0,0,1,187,48.91Zm5.37-2.53a.5.5,0,0,1-.18-1c.9-.35,1.85-.7,2.82-1a.5.5,0,1,1,.31.95c-1,.31-1.88.65-2.77,1A.5.5,0,0,1,192.36,46.38Zm49.36,0a.5.5,0,0,1-.22,0c-.85-.41-1.75-.8-2.69-1.16a.5.5,0,0,1,.36-.93c1,.37,1.89.77,2.77,1.19a.5.5,0,0,1-.22,1ZM198,44.51a.5.5,0,0,1-.13-1c.95-.26,1.92-.51,2.9-.73a.5.5,0,0,1,.22,1q-1.45.33-2.86.72Zm38.18-.27-.14,0c-.91-.27-1.86-.53-2.84-.76a.5.5,0,0,1,.23-1c1,.23,2,.5,2.9.78a.5.5,0,0,1-.14,1Zm-32.39-1.06a.5.5,0,0,1-.09-1q1.46-.27,3-.49a.5.5,0,0,1,.14,1q-1.47.21-2.91.48Zm26.61-.31h-.09c-.94-.17-1.92-.32-2.91-.45a.5.5,0,0,1,.13-1c1,.13,2,.28,3,.46a.5.5,0,0,1-.09,1Zm-20.73-.56a.5.5,0,0,1-.05-1q1.48-.16,3-.27a.5.5,0,0,1,.07,1q-1.48.11-2.94.26Zm14.84-.21h0q-1.46-.12-2.95-.19a.5.5,0,0,1-.48-.52.48.48,0,0,1,.52-.48q1.5.07,3,.19a.5.5,0,0,1,0,1Zm-8.91-.21a.5.5,0,0,1,0-1q1.35,0,2.69,0h.3a.5.5,0,0,1,0,1h-.3q-1.33,0-2.66,0Z"/><path class="cls-3" d="M247.47,124.61a.5.5,0,0,1-.49-.38s-.14-.55-.31-1.5a.5.5,0,1,1,1-.18c.16.9.29,1.42.29,1.43a.5.5,0,0,1-.36.61Z"/></g></g></svg>